<svg width="12" height="12" viewBox="0 0 12 12" fill="none" xmlns="http://www.w3.org/2000/svg">
<path d="M11.1924 0.999995C11.1924 0.44771 10.7447 -5.4464e-06 10.1924 -5.02494e-06L1.19239 -5.23567e-06C0.640103 -5.23567e-06 0.192388 0.44771 0.192388 0.999995C0.192388 1.55228 0.640103 1.99999 1.19239 1.99999L9.19239 1.99999L9.19239 9.99999C9.19239 10.5523 9.6401 11 10.1924 11C10.7447 11 11.1924 10.5523 11.1924 9.99999L11.1924 0.999995ZM0.292893 9.48528C-0.0976311 9.8758 -0.0976311 10.509 0.292893 10.8995C0.683418 11.29 1.31658 11.29 1.70711 10.8995L1 10.1924L0.292893 9.48528ZM10.1924 0.999995L9.48528 0.292888L0.292893 9.48528L1 10.1924L1.70711 10.8995L10.8995 1.7071L10.1924 0.999995Z" fill="black"/>
</svg>
