<svg width="32" height="32" viewBox="0 0 32 32" fill="none" xmlns="http://www.w3.org/2000/svg">
<path d="M5.33333 26.6666C4.6 26.6666 3.97244 26.4057 3.45066 25.8839C2.92889 25.3621 2.66755 24.7341 2.66666 23.9999V7.99992C2.66666 7.26659 2.928 6.63903 3.45066 6.11725C3.97333 5.59547 4.60089 5.33414 5.33333 5.33325H26.6667C27.4 5.33325 28.028 5.59459 28.5507 6.11725C29.0733 6.63992 29.3342 7.26747 29.3333 7.99992V23.9999C29.3333 24.7333 29.0724 25.3613 28.5507 25.8839C28.0289 26.4066 27.4009 26.6675 26.6667 26.6666H5.33333ZM16 17.3333L26.6667 10.6666V7.99992L16 14.6666L5.33333 7.99992V10.6666L16 17.3333Z" fill="#EAF934"/>
</svg>
