<svg width="27" height="29" viewBox="0 0 27 29" fill="none" xmlns="http://www.w3.org/2000/svg">
<path fill-rule="evenodd" clip-rule="evenodd" d="M19.5837 26.6233C17.6637 26.5526 12.2223 25.8006 6.52366 20.1033C0.826323 14.4046 0.075656 8.96459 0.003656 7.04326C-0.103011 4.11526 2.13966 1.27126 4.73032 0.160592C5.04229 0.0258813 5.38392 -0.0254072 5.7217 0.0117595C6.05947 0.0489261 6.38178 0.173271 6.65699 0.372592C8.79032 1.92726 10.2623 4.27926 11.5263 6.12859C11.8044 6.5349 11.9233 7.02932 11.8604 7.51765C11.7975 8.00599 11.557 8.45409 11.185 8.77659L8.58366 10.7086C8.45798 10.7993 8.36951 10.9326 8.33469 11.0837C8.29987 11.2347 8.32106 11.3933 8.39432 11.5299C8.98366 12.6006 10.0317 14.1953 11.2317 15.3953C12.4317 16.5953 14.1023 17.7126 15.2477 18.3686C15.3913 18.4492 15.5603 18.4717 15.72 18.4316C15.8797 18.3914 16.018 18.2916 16.1063 18.1526L17.7997 15.5753C18.111 15.1617 18.5702 14.8847 19.0812 14.8022C19.5922 14.7197 20.1153 14.8381 20.541 15.1326C22.417 16.4313 24.6063 17.8779 26.209 19.9299C26.4245 20.2071 26.5616 20.5371 26.6059 20.8854C26.6502 21.2338 26.6002 21.5876 26.461 21.9099C25.345 24.5139 22.521 26.7313 19.5837 26.6233Z" fill="#EAF934"/>
</svg>
