<svg width="20" height="20" viewBox="0 0 20 20" fill="none" xmlns="http://www.w3.org/2000/svg">
<path d="M0.470837 17.1417L14.3556 3.33172H5.00978C4.56557 3.33172 4.13955 3.15621 3.82545 2.8438C3.51135 2.53139 3.33489 2.10768 3.33489 1.66586C3.33489 1.22405 3.51135 0.80033 3.82545 0.48792C4.13955 0.17551 4.56557 0 5.00978 0H18.3251C18.7693 0 19.1953 0.17551 19.5094 0.48792C19.8235 0.80033 20 1.22405 20 1.66586V14.9928C20 15.4346 19.8235 15.8583 19.5094 16.1707C19.1953 16.4831 18.7693 16.6586 18.3251 16.6586H18.4089C17.9647 16.6586 17.5386 16.4831 17.2245 16.1707C16.9104 15.8583 16.734 15.4346 16.734 14.9928V5.74722L2.89942 19.5072C2.74372 19.6634 2.55848 19.7873 2.35437 19.8719C2.15027 19.9565 1.93136 20 1.71025 20C1.48915 20 1.27023 19.9565 1.06613 19.8719C0.86203 19.7873 0.676785 19.6634 0.521082 19.5072C0.360764 19.3557 0.232208 19.1741 0.142836 18.9729C0.053463 18.7717 0.00504494 18.5548 0.00037384 18.3349C-0.00429916 18.115 0.0348701 17.8963 0.115618 17.6915C0.196365 17.4867 0.317097 17.2999 0.470837 17.1417Z" fill="white"/>
</svg>
