<svg width="34" height="33" viewBox="0 0 34 33" fill="none" xmlns="http://www.w3.org/2000/svg">
<path d="M16.6667 0C14.478 0 12.3107 0.431096 10.2886 1.26867C8.26652 2.10625 6.4292 3.33391 4.88155 4.88155C1.75595 8.00716 0 12.2464 0 16.6667C0 24.0333 4.78333 30.2833 11.4 32.5C12.2333 32.6333 12.5 32.1167 12.5 31.6667V28.85C7.88333 29.85 6.9 26.6167 6.9 26.6167C6.13333 24.6833 5.05 24.1667 5.05 24.1667C3.53333 23.1333 5.16667 23.1667 5.16667 23.1667C6.83333 23.2833 7.71667 24.8833 7.71667 24.8833C9.16667 27.4167 11.6167 26.6667 12.5667 26.2667C12.7167 25.1833 13.15 24.45 13.6167 24.0333C9.91667 23.6167 6.03333 22.1833 6.03333 15.8333C6.03333 13.9833 6.66667 12.5 7.75 11.3167C7.58333 10.9 7 9.16667 7.91667 6.91667C7.91667 6.91667 9.31667 6.46667 12.5 8.61667C13.8167 8.25 15.25 8.06667 16.6667 8.06667C18.0833 8.06667 19.5167 8.25 20.8333 8.61667C24.0167 6.46667 25.4167 6.91667 25.4167 6.91667C26.3333 9.16667 25.75 10.9 25.5833 11.3167C26.6667 12.5 27.3 13.9833 27.3 15.8333C27.3 22.2 23.4 23.6 19.6833 24.0167C20.2833 24.5333 20.8333 25.55 20.8333 27.1V31.6667C20.8333 32.1167 21.1 32.65 21.95 32.5C28.5667 30.2667 33.3333 24.0333 33.3333 16.6667C33.3333 14.478 32.9022 12.3107 32.0647 10.2886C31.2271 8.26652 29.9994 6.4292 28.4518 4.88155C26.9041 3.33391 25.0668 2.10625 23.0447 1.26867C21.0226 0.431096 18.8554 0 16.6667 0Z" fill="#EAF934"/>
</svg>
